<svg width="252" height="252" viewBox="0 0 252 252" fill="none" xmlns="http://www.w3.org/2000/svg">
<path d="M251 126C251 105.743 246.077 85.7886 236.654 67.856L181.327 96.9281C186.038 105.894 188.5 115.871 188.5 126H251Z" fill="#E4D767"/>
<path d="M236.654 67.856C227.758 50.9264 215.097 36.2638 199.644 24.9967C184.19 13.7296 166.358 6.15851 147.519 2.8662C128.68 -0.426102 109.337 0.648161 90.9788 6.0063C72.6203 11.3644 55.7361 20.8636 41.6257 33.7725L83.813 79.8863C90.8682 73.4318 99.3103 68.6822 108.49 66.0032C117.669 63.3241 127.34 62.787 136.76 64.4331C146.179 66.0793 155.095 69.8648 162.822 75.4984C170.548 81.1319 176.879 88.4633 181.327 96.9281L236.654 67.856Z" fill="#67E499"/>
<path d="M41.6257 33.7725C25.7597 48.2876 13.9064 66.6503 7.21187 87.0855L66.606 106.543C69.9532 96.3252 75.8801 87.1438 83.813 79.8863L41.6257 33.7725Z" fill="#6774E4"/>
<path d="M7.21187 87.0855C-2.44746 116.571 -0.795872 148.595 11.8459 176.93C24.4878 205.265 47.2159 227.886 75.6106 240.394L100.805 183.197C86.6079 176.943 75.2438 165.633 68.9229 151.465C62.602 137.297 61.7763 121.286 66.606 106.543L7.21187 87.0855Z" fill="#35C9E9"/>
<path d="M75.6106 240.394C94.6378 248.775 115.455 252.278 136.178 250.585C156.9 248.892 176.873 242.057 194.287 230.699C211.702 219.34 226.009 203.818 235.911 185.536C245.814 167.254 251 146.792 251 126H188.5C188.5 136.396 185.907 146.627 180.956 155.768C176.004 164.909 168.851 172.67 160.144 178.349C151.436 184.028 141.45 187.446 131.089 188.292C120.728 189.139 110.319 187.387 100.805 183.197L75.6106 240.394Z" fill="#E467B3"/>
<path d="M236.654 67.856L237.096 67.6234L237.096 67.6234L236.654 67.856ZM41.6257 33.7725L41.2882 33.4036L41.2882 33.4036L41.6257 33.7725ZM66.606 106.543L67.0812 106.698L67.0812 106.698L66.606 106.543ZM100.805 183.197L101.007 182.739L101.007 182.739L100.805 183.197ZM251.5 126C251.5 105.662 246.557 85.6277 237.096 67.6234L236.211 68.0885C245.596 85.9494 250.5 105.824 250.5 126H251.5ZM236.421 67.4134L181.094 96.4855L181.559 97.3707L236.886 68.2986L236.421 67.4134ZM180.884 97.1607C185.558 106.055 188 115.952 188 126H189C189 115.79 186.519 105.734 181.77 96.6955L180.884 97.1607ZM188.5 126.5H251V125.5H188.5V126.5ZM237.096 67.6234C228.165 50.6262 215.453 35.9048 199.938 24.5927L199.349 25.4007C214.74 36.6227 227.351 51.2267 236.211 68.0885L237.096 67.6234ZM199.938 24.5927C184.423 13.2805 166.52 5.67915 147.605 2.37367L147.433 3.35874C166.197 6.63788 183.958 14.1787 199.349 25.4007L199.938 24.5927ZM147.605 2.37367C128.691 -0.931807 109.271 0.146754 90.8387 5.52633L91.1189 6.48628C109.404 1.14957 128.67 0.079602 147.433 3.35874L147.605 2.37367ZM90.8387 5.52633C72.4068 10.9059 55.455 20.443 41.2882 33.4036L41.9632 34.1414C56.0171 21.2841 72.8338 11.823 91.1189 6.48628L90.8387 5.52633ZM41.2568 34.11L83.4441 80.2238L84.1819 79.5488L41.9946 33.435L41.2568 34.11ZM84.1505 80.2552C91.1493 73.8524 99.5239 69.1408 108.63 66.4831L108.349 65.5232C99.0968 68.2237 90.5872 73.0113 83.4755 79.5174L84.1505 80.2552ZM108.63 66.4831C117.735 63.8255 127.33 63.2927 136.674 64.9257L136.846 63.9406C127.351 62.2813 117.602 62.8227 108.349 65.5232L108.63 66.4831ZM136.674 64.9257C146.018 66.5586 154.863 70.3139 162.527 75.9024L163.117 75.0943C155.328 69.4157 146.341 65.5999 136.846 63.9406L136.674 64.9257ZM162.527 75.9024C170.192 81.4908 176.472 88.7636 180.884 97.1607L181.77 96.6955C177.286 88.163 170.905 80.773 163.117 75.0943L162.527 75.9024ZM41.2882 33.4036C25.3588 47.9767 13.458 66.4129 6.73672 86.9298L7.68703 87.2412C14.3547 66.8877 26.1607 48.5984 41.9632 34.1414L41.2882 33.4036ZM7.05622 87.5607L66.4503 107.018L66.7617 106.068L7.36753 86.6103L7.05622 87.5607ZM67.0812 106.698C70.4016 96.5626 76.281 87.4547 84.1505 80.2552L83.4755 79.5174C75.4791 86.833 69.5049 96.0878 66.1308 106.387L67.0812 106.698ZM6.73672 86.9298C-2.96125 116.533 -1.30306 148.685 11.3893 177.134L12.3026 176.726C-0.288688 148.505 -1.93367 116.609 7.68703 87.2412L6.73672 86.9298ZM11.3893 177.134C24.0817 205.582 46.9008 228.294 75.409 240.851L75.8121 239.936C47.5311 227.479 24.8938 204.948 12.3026 176.726L11.3893 177.134ZM76.0682 240.595L101.263 183.398L100.348 182.995L75.153 240.192L76.0682 240.595ZM101.007 182.739C86.923 176.536 75.6498 165.316 69.3795 151.261L68.4663 151.669C74.8378 165.95 86.2927 177.351 100.604 183.654L101.007 182.739ZM69.3795 151.261C63.1092 137.207 62.2901 121.323 67.0812 106.698L66.1308 106.387C61.2625 121.248 62.0948 137.388 68.4663 151.669L69.3795 151.261ZM75.409 240.851C94.5123 249.266 115.413 252.783 136.218 251.083L136.137 250.087C115.498 251.773 94.7632 248.284 75.8121 239.936L75.409 240.851ZM136.218 251.083C157.024 249.384 177.076 242.521 194.561 231.118L194.014 230.28C176.669 241.593 156.776 248.401 136.137 250.087L136.218 251.083ZM194.561 231.118C212.045 219.714 226.409 204.129 236.351 185.774L235.472 185.298C225.608 203.506 211.359 218.967 194.014 230.28L194.561 231.118ZM236.351 185.774C246.293 167.419 251.5 146.875 251.5 126H250.5C250.5 146.708 245.335 167.089 235.472 185.298L236.351 185.774ZM188 126C188 136.313 185.428 146.462 180.516 155.53L181.395 156.006C186.386 146.792 189 136.479 189 126H188ZM180.516 155.53C175.604 164.597 168.508 172.297 159.871 177.931L160.417 178.768C169.194 173.044 176.404 165.22 181.395 156.006L180.516 155.53ZM159.871 177.931C151.233 183.564 141.326 186.954 131.048 187.794L131.13 188.791C141.574 187.938 151.64 184.493 160.417 178.768L159.871 177.931ZM131.048 187.794C120.77 188.634 110.444 186.896 101.007 182.739L100.604 183.654C110.193 187.879 120.686 189.644 131.13 188.791L131.048 187.794Z" fill="white"/>
</svg>
