<svg width="94" height="68" viewBox="0 0 94 68" fill="none" xmlns="http://www.w3.org/2000/svg">
<path fill-rule="evenodd" clip-rule="evenodd" d="M94 7.50488V20.9449H0.963679V7.50488C0.965869 5.73395 1.65507 4.03399 2.88317 2.77034C4.14111 1.52078 5.82987 0.814734 7.59292 0.799988H87.3423C89.0989 0.806634 90.781 1.51485 92.0237 2.77034C93.2809 4.01841 93.992 5.72359 94 7.50488Z" fill="#E467B3" fill-opacity="0.2"/>
<path fill-rule="evenodd" clip-rule="evenodd" d="M0.963584 27.6508V61.265C0.940222 63.0581 1.6338 64.7847 2.88812 66.0534C4.14167 67.3214 5.84865 68.023 7.62198 67.9994H87.3415C89.1098 68.0068 90.808 67.3 92.0578 66.0357C93.3084 64.7706 94.0072 63.0529 93.9999 61.265V27.6508H0.963584ZM34.1948 57.913H14.2505V51.1779H34.1948V57.913ZM47.4817 57.913H40.8241V51.1779H47.4817V57.913Z" fill="#E467B3" fill-opacity="0.2"/>
</svg>
