<svg width="30" height="30" viewBox="0 0 30 30" fill="none" xmlns="http://www.w3.org/2000/svg">
<path d="M25.302 6.48207C23.4073 5.61268 21.3754 4.97216 19.251 4.6053C19.2123 4.59822 19.1737 4.61591 19.1538 4.6513C18.8925 5.11606 18.603 5.72238 18.4003 6.19895C16.1154 5.85687 13.8422 5.85687 11.6041 6.19895C11.4014 5.71179 11.1014 5.11606 10.8389 4.6513C10.819 4.61709 10.7803 4.5994 10.7417 4.6053C8.61843 4.97098 6.5866 5.61151 4.69069 6.48207C4.67427 6.48915 4.6602 6.50096 4.65087 6.51628C0.796919 12.274 -0.258839 17.8902 0.25908 23.4368C0.261424 23.4639 0.276657 23.4898 0.297749 23.5063C2.84047 25.3737 5.30354 26.5073 7.72086 27.2587C7.75955 27.2705 7.80054 27.2564 7.82516 27.2245C8.39698 26.4436 8.9067 25.6202 9.34374 24.7544C9.36954 24.7037 9.34492 24.6435 9.2922 24.6234C8.48369 24.3167 7.71383 23.9428 6.97327 23.5182C6.9147 23.4839 6.91001 23.4002 6.96389 23.3601C7.11973 23.2433 7.27562 23.1218 7.42442 22.9991C7.45134 22.9767 7.48886 22.972 7.52051 22.9861C12.3856 25.2074 17.6527 25.2074 22.4605 22.9861C22.4921 22.9708 22.5296 22.9755 22.5577 22.9979C22.7066 23.1206 22.8624 23.2433 23.0194 23.3601C23.0733 23.4002 23.0698 23.4839 23.0112 23.5182C22.2707 23.951 21.5008 24.3167 20.6911 24.6223C20.6384 24.6423 20.6149 24.7037 20.6407 24.7544C21.0872 25.619 21.5969 26.4424 22.1582 27.2233C22.1816 27.2564 22.2238 27.2705 22.2625 27.2587C24.6915 26.5073 27.1545 25.3737 29.6973 23.5063C29.7195 23.4898 29.7336 23.4651 29.736 23.4379C30.3558 17.0255 28.6977 11.4554 25.3407 6.51745C25.3324 6.50096 25.3184 6.48915 25.302 6.48207ZM10.0703 20.0595C8.60553 20.0595 7.39863 18.7147 7.39863 17.0633C7.39863 15.4118 8.58213 14.067 10.0703 14.067C11.5701 14.067 12.7653 15.4236 12.7419 17.0633C12.7419 18.7147 11.5584 20.0595 10.0703 20.0595ZM19.9482 20.0595C18.4835 20.0595 17.2766 18.7147 17.2766 17.0633C17.2766 15.4118 18.4601 14.067 19.9482 14.067C21.4481 14.067 22.6433 15.4236 22.6199 17.0633C22.6199 18.7147 21.4481 20.0595 19.9482 20.0595Z" fill="#5865F2"/>
</svg>
