<svg width="93" height="91" viewBox="0 0 93 91" fill="none" xmlns="http://www.w3.org/2000/svg">
<path d="M43.0322 35.9991V41.3246C43.0322 44.7402 33.5784 47.5128 21.9154 47.5128C10.2509 47.5128 0.798654 44.7581 0.798654 41.3246V35.9991C0.798654 32.5835 10.2525 29.8109 21.9154 29.8109C33.58 29.8109 43.0322 32.5745 43.0322 35.9991V35.9991ZM21.9154 53.3806C14.2528 53.3806 6.29999 52.3245 0.907624 49.7082V49.7076C0.825282 49.9234 0.781321 50.1495 0.777832 50.3782V55.7036C0.777832 59.1192 10.2317 61.8918 21.8946 61.8918C33.5591 61.8918 43.0114 59.1371 43.0114 55.7036V50.3782C43.0079 50.1495 42.964 49.9234 42.8816 49.7076C37.57 52.3246 29.5668 53.3806 21.9131 53.3806L21.9154 53.3806ZM21.9154 67.7964C14.2528 67.7964 6.29999 66.7403 0.907624 64.124V64.1234C0.825282 64.3386 0.781321 64.5653 0.777832 64.7933V70.1187C0.777832 73.5344 10.2317 76.3069 21.8946 76.3069C33.5591 76.3069 43.0114 73.5522 43.0114 70.1187V64.7933C43.0086 64.5653 42.9647 64.3386 42.8816 64.1234C37.57 66.7397 29.5668 67.8048 21.9131 67.8048L21.9154 67.7964ZM21.9154 82.2122C14.2528 82.2122 6.29999 81.156 0.907624 78.5398V78.5385C0.825282 78.7543 0.781321 78.9804 0.777832 79.209V84.5345C0.787601 88.0052 10.2512 90.7593 21.9161 90.7593C33.5806 90.7593 43.0329 88.0046 43.0329 84.5711V79.2456C43.0294 79.017 42.9854 78.7909 42.9031 78.5757C37.5711 81.1554 29.5681 82.2117 21.9149 82.2117L21.9154 82.2122ZM71.2338 44.2175C59.5693 44.2175 50.117 46.9722 50.117 50.4057V55.7312C50.117 59.1468 59.5709 61.9194 71.2338 61.9194C82.8983 61.9194 92.3506 59.1647 92.3506 55.7312V50.4057C92.3611 46.9894 82.8974 44.2162 71.2338 44.2162V44.2175ZM71.2338 67.7967C63.581 67.8044 55.5778 66.7393 50.2456 64.1319C50.1633 64.3471 50.1193 64.5738 50.1158 64.8024V70.1279C50.1158 73.5435 59.5697 76.3161 71.2326 76.3161C82.8972 76.3161 92.3494 73.5614 92.3494 70.1279V64.8024H92.3501C92.3459 64.5738 92.302 64.3471 92.2196 64.1319C86.848 66.7392 78.895 67.8043 71.2315 67.8043L71.2338 67.7967ZM78.7868 3.09123C78.5837 2.64354 78.2844 2.23749 77.9062 1.89804C77.5273 1.55026 77.0793 1.27294 76.5859 1.08079C76.0465 0.877122 75.4687 0.774646 74.8854 0.777844H67.5828C67.0093 0.777203 66.4419 0.880319 65.9116 1.08079C65.4162 1.26909 64.964 1.54321 64.5816 1.88843C64.2034 2.22788 63.904 2.63395 63.701 3.08226C63.4958 3.54212 63.4002 4.03656 63.4211 4.53294L64.0212 20.2155H59.1296C58.794 20.2155 58.459 20.2436 58.1289 20.2981C57.787 20.3519 57.4514 20.4377 57.1283 20.5549C56.8289 20.6625 56.5435 20.8009 56.2784 20.968C56.0244 21.132 55.7955 21.3267 55.598 21.547C55.3363 21.841 55.1361 22.1772 55.0077 22.5384C54.8855 22.8785 54.8353 23.2366 54.8576 23.5946C54.8869 23.9603 54.9888 24.3177 55.1577 24.6501C55.3335 24.9882 55.5666 25.2982 55.8478 25.5685L68.0224 37.6888V37.6882C68.217 37.8797 68.4355 38.0488 68.6727 38.1935C68.9183 38.3434 69.1793 38.4696 69.4529 38.5701C69.7341 38.6752 70.0257 38.7552 70.3237 38.8084C70.9378 38.9172 71.5693 38.9172 72.184 38.8084C72.482 38.7552 72.7737 38.6751 73.0542 38.5701C73.325 38.4696 73.5831 38.3434 73.8246 38.1935C74.0597 38.0494 74.2747 37.8797 74.4652 37.6882L86.5895 25.5685C86.7277 25.4302 86.8547 25.2829 86.9698 25.1279C87.0801 24.9761 87.1771 24.816 87.2601 24.6501C87.3424 24.4874 87.4087 24.3183 87.4597 24.1454C87.5099 23.9738 87.5434 23.7989 87.5602 23.6221C87.595 23.2206 87.5371 22.8164 87.3899 22.4373C87.3396 22.3111 87.2789 22.1888 87.2099 22.0703C87.048 21.7827 86.8386 21.5195 86.5895 21.2895C86.3341 21.0583 86.0445 20.8604 85.7291 20.7022C85.4137 20.5389 85.0781 20.4127 84.7291 20.3256C84.3426 20.2385 83.9462 20.1956 83.5485 20.1969H78.4664L79.0665 4.51437C79.0832 4.0276 78.9876 3.54277 78.7867 3.09124L78.7868 3.09123ZM71.2338 82.2105C63.5711 82.2105 55.6184 81.1544 50.226 78.5381L50.2267 78.5375C50.1436 78.7533 50.0997 78.9794 50.0962 79.208V84.5335C50.1164 88.0042 59.5801 90.7583 71.2344 90.7583C82.8884 90.7583 92.3512 88.0036 92.3512 84.5701V79.2446H92.3519C92.3477 79.016 92.3038 78.7899 92.2214 78.5747C86.8498 81.1544 78.8968 82.2107 71.2332 82.2107L71.2338 82.2105Z" fill="#67E499" fill-opacity="0.2"/>
</svg>
