<svg width="95" height="85" viewBox="0 0 95 85" fill="none" xmlns="http://www.w3.org/2000/svg">
<path d="M57.5284 45.4776C58.7175 45.4776 59.816 44.8656 60.4101 43.8723C61.0043 42.8791 61.0043 41.6551 60.4101 40.6618C59.816 39.6686 58.7175 39.0566 57.5284 39.0566H50.8737C50.8737 37.9092 50.2394 36.8494 49.21 36.2761C48.1806 35.7028 46.912 35.7028 45.8826 36.2761C44.8532 36.8494 44.2189 37.9093 44.2189 39.0566C40.6523 39.0566 37.3569 40.8926 35.5744 43.8723C33.7911 46.852 33.7911 50.5241 35.5744 53.5038C37.3569 56.4835 40.6523 58.3196 44.2189 58.3196V64.7406H37.5642C36.3751 64.7406 35.2766 65.3526 34.6824 66.3458C34.0883 67.3391 34.0883 68.5631 34.6824 69.5564C35.2766 70.5496 36.3751 71.1616 37.5642 71.1616H44.2189C44.2189 72.3089 44.8532 73.3688 45.8826 73.9421C46.912 74.5154 48.1806 74.5154 49.21 73.9421C50.2394 73.3688 50.8737 72.3089 50.8737 71.1616C54.4402 71.1616 57.7357 69.3256 59.5182 66.3458C61.3015 63.3661 61.3015 59.6941 59.5182 56.7143C57.7357 53.7346 54.4402 51.8986 50.8737 51.8986V45.4776H57.5284ZM54.2011 61.5301C54.2011 62.3814 53.8505 63.1984 53.2266 63.8004C52.6027 64.4023 51.756 64.7406 50.8737 64.7406V58.3196C51.756 58.3196 52.6027 58.6579 53.2266 59.2598C53.8505 59.8618 54.2011 60.6787 54.2011 61.5301ZM44.2189 51.8986C43.0298 51.8986 41.9314 51.2866 41.3372 50.2933C40.743 49.3001 40.743 48.0761 41.3372 47.0828C41.9314 46.0896 43.0299 45.4776 44.2189 45.4776V51.8986Z" fill="#E467B3" fill-opacity="0.2"/>
<path d="M90.8022 26.2144H84.1474C82.9583 26.2144 81.8599 26.8264 81.2657 27.8197C80.6715 28.813 80.6715 30.037 81.2657 31.0302C81.8599 32.0234 82.9584 32.6355 84.1474 32.6355H87.4748V61.53C83.0623 61.53 78.831 63.2212 75.7109 66.2318C72.5908 69.2424 70.8379 73.325 70.8379 77.5825H24.2546C24.2546 73.325 22.5017 69.2423 19.3816 66.2318C16.2614 63.2213 12.0301 61.53 7.61765 61.53V48.688C12.0301 48.688 16.2614 46.9967 19.3816 43.9861C22.5017 40.9756 24.2546 36.8929 24.2546 32.6355H57.5284C58.7175 32.6355 59.8159 32.0235 60.4101 31.0302C61.0042 30.0369 61.0042 28.8129 60.4101 27.8197C59.8159 26.8265 58.7174 26.2144 57.5284 26.2144H4.29027C3.40793 26.2144 2.56121 26.5527 1.93734 27.1547C1.31346 27.7566 0.962891 28.5736 0.962891 29.4249V80.793C0.962891 81.6444 1.31346 82.4613 1.93734 83.0633C2.56121 83.6653 3.40793 84.0035 4.29027 84.0035H90.8022C91.6845 84.0035 92.5312 83.6653 93.1551 83.0633C93.779 82.4613 94.1296 81.6444 94.1296 80.793V29.4249C94.1296 28.5736 93.779 27.7566 93.1551 27.1547C92.5312 26.5527 91.6845 26.2144 90.8022 26.2144Z" fill="#E467B3" fill-opacity="0.2"/>
<path d="M60.8558 16.4141C61.7404 16.4191 62.5901 16.0837 63.2185 15.4832L67.5106 11.3095V29.2561C67.5106 30.4034 68.1449 31.4633 69.1743 32.0366C70.2037 32.6099 71.4723 32.6099 72.5017 32.0366C73.5311 31.4633 74.1654 30.4034 74.1654 29.2561V11.3095L78.4575 15.4509C79.3146 16.1589 80.4843 16.3997 81.5658 16.0909C82.6472 15.7827 83.4932 14.9665 83.8125 13.9231C84.1326 12.8797 83.883 11.751 83.1492 10.924L73.1671 1.29247C72.5439 0.694798 71.7002 0.358704 70.8216 0.358704C69.9422 0.358704 69.0992 0.694798 68.4753 1.29247L58.4931 10.924C57.864 11.5267 57.5098 12.3458 57.509 13.2007C57.5083 14.0563 57.8611 14.8762 58.4894 15.4796C59.1178 16.083 59.9698 16.4191 60.8558 16.4141Z" fill="#E467B3" fill-opacity="0.2"/>
</svg>
