<svg width="83" height="82" viewBox="0 0 83 82" fill="none" xmlns="http://www.w3.org/2000/svg">
<path d="M44.9937 59.2369L27.8091 66.6237C26.6974 67.0533 25.5863 67.3109 24.3036 67.3109C21.9097 67.3109 19.7723 66.3661 18.0626 64.734C15.4975 62.157 14.7282 58.292 16.1816 54.9421L23.6196 37.7635C24.6454 35.2729 26.1846 33.0392 28.1509 31.0638L44.3096 14.8299L12.2487 14.8293C6.00766 14.8293 0.962952 19.8969 0.962952 26.1676V70.6603C0.962952 76.9304 6.00705 81.9986 12.2487 81.9986H56.5355C62.7765 81.9986 67.8212 76.931 67.8212 70.6603V38.5362L51.6625 54.7701C49.7822 56.6597 47.4734 58.2057 44.9937 59.2369Z" fill="#6774E4" fill-opacity="0.2"/>
<path d="M80.1324 7.09963L75.5159 2.46169C72.7798 -0.287199 68.2485 -0.287199 65.5129 2.46169L32.5971 35.5306C31.229 36.9051 30.2032 38.4508 29.4339 40.2549L22.0813 57.5195C21.6537 58.4643 21.9101 59.5811 22.5942 60.2684C23.1071 60.7836 23.7058 61.0413 24.3899 61.0413C24.7316 61.0413 25.0739 60.9556 25.4156 60.8693L42.6003 53.4825C44.31 52.7096 45.9346 51.6784 47.3027 50.3046L80.133 17.1498C82.8692 14.4015 82.8685 9.84852 80.1324 7.09963ZM40.5479 48.7579L32.1689 52.3654L30.4591 50.6477L34.0499 42.2303C34.2211 41.8007 34.4775 41.4574 34.734 41.0278L41.8301 48.157C41.3172 48.414 40.9749 48.5859 40.5479 48.7579Z" fill="#6774E4" fill-opacity="0.2"/>
</svg>
