<svg width="34" height="26" viewBox="0 0 34 26" fill="none" xmlns="http://www.w3.org/2000/svg">
<path d="M0.606222 0.991715C-0.244575 1.84672 -0.1914 3.28953 0.712572 4.03766C1.19115 4.46516 6.03005 4.62547 17.2499 4.5186C31.6603 4.35828 33.1492 4.25141 33.681 3.39641C34.1064 2.75516 34.1064 2.22078 33.681 1.52609C33.1492 0.724527 31.6603 0.617651 17.1968 0.457339C5.23243 0.350463 1.0848 0.510776 0.606222 0.991715Z" fill="#4652B4"/>
<path d="M0.606222 11.6792C-0.244575 12.5342 -0.1914 13.977 0.712572 14.7252C1.19115 15.1527 6.03005 15.313 17.2499 15.2061C31.6603 15.0458 33.1492 14.9389 33.681 14.0839C34.1064 13.4427 34.1064 12.9083 33.681 12.2136C33.1492 11.412 31.6603 11.3052 17.1968 11.1448C5.23243 11.038 1.0848 11.1983 0.606222 11.6792Z" fill="#4652B4"/>
<path d="M0.606222 22.3667C-0.244575 23.2217 -0.1914 24.6645 0.712572 25.4127C1.19115 25.8402 6.03005 26.0005 17.2499 25.8936C31.6603 25.7333 33.1492 25.6264 33.681 24.7714C34.1064 24.1302 34.1064 23.5958 33.681 22.9011C33.1492 22.0995 31.6603 21.9927 17.1968 21.8323C5.23243 21.7255 1.0848 21.8858 0.606222 22.3667Z" fill="#4652B4"/>
</svg>
