<svg width="30" height="30" viewBox="0 0 30 30" fill="none" xmlns="http://www.w3.org/2000/svg">
<path d="M26.3213 8.97594C26.3329 9.23994 26.3329 9.49194 26.3329 9.75594C26.3444 17.76 20.4639 27 9.70979 27C6.53798 27 3.42405 26.052 0.75 24.276C1.21304 24.336 1.67608 24.36 2.13911 24.36C4.76686 24.36 7.32514 23.448 9.39724 21.756C6.89683 21.708 4.6974 20.016 3.93339 17.544C4.81316 17.724 5.71608 17.688 6.5727 17.436C3.85236 16.884 1.89602 14.4 1.88444 11.508C1.88444 11.484 1.88444 11.46 1.88444 11.436C2.69476 11.904 3.60926 12.168 4.53534 12.192C1.97705 10.4159 1.17831 6.87594 2.72949 4.10393C5.70451 7.89594 10.0802 10.1879 14.7801 10.4399C14.3054 8.33994 14.9537 6.13193 16.4701 4.64393C18.8201 2.35192 22.5244 2.47192 24.747 4.90793C26.055 4.64393 27.3168 4.13993 28.4628 3.43192C28.0229 4.83593 27.1084 6.02393 25.893 6.77994C27.0506 6.63593 28.185 6.31193 29.25 5.83193C28.4628 7.05594 27.4673 8.11194 26.3213 8.97594Z" fill="#1D9BF0"/>
</svg>
